Coordinates
version=1
nRows=13
nColumns=30
inDegrees=yes

Units are S.I. units (second, meters, Newtons, ...)
Angles are in degrees.

endheader
time	floatyaw	floatroll	floatpitch	floatx	floaty	floatz	pro_sup_l	deviation_l	flexion_l	cmc_flexion_l	cmc_abduction_l	mp_flexion_l	ip_flexion_l	2mcp_flexion_l	2mcp_abduction_l	2pm_flexion_l	2md_flexion_l	3mcp_flexion_l	3mcp_abduction_l	3pm_flexion_l	3md_flexion_l	4mcp_flexion_l	4mcp_abduction_l	4pm_flexion_l	4md_flexion_l	5mcp_flexion_l	5mcp_abduction_l	5pm_flexion_l	5md_flexion_l
-1.495000	-1.089067	-4.156866	93.821839	-0.009403	-0.265571	-0.003032	89.138445	0.519982	-2.094558	24.435931	3.460150	-17.930034	-29.140877	19.722779	6.047981	31.129801	20.555062	9.744707	4.470877	33.798432	21.567294	-1.211404	-3.898749	50.634904	32.957800	-20.618886	-8.110582	60.360203	50.301997
-1.485000	-1.089067	-4.156866	93.821839	-0.009425	-0.265576	-0.003007	89.151613	0.511814	-2.096599	24.437101	3.455667	-17.932060	-29.137629	19.745693	6.045859	31.081650	20.540969	9.733749	4.479318	33.795012	21.581045	-1.208221	-3.906397	50.595648	32.951155	-20.639439	-8.099708	60.378278	50.243764
-1.475000	-1.089067	-4.156866	93.821839	-0.009451	-0.265573	-0.002979	89.159337	0.502766	-2.094525	24.420133	3.455156	-17.925672	-29.105323	19.780562	6.037789	31.015907	20.517725	9.726567	4.488219	33.784552	21.586552	-1.203427	-3.912701	50.546467	32.943889	-20.650344	-8.082556	60.383650	50.193827
-1.465000	-1.089067	-4.156866	93.821839	-0.009476	-0.265561	-0.002954	89.157213	0.493663	-2.087791	24.382106	3.464661	-17.911258	-29.040690	19.824131	6.025685	30.940948	20.487081	9.720602	4.495213	33.772881	21.586133	-1.201707	-3.916956	50.501763	32.939161	-20.652769	-8.063790	60.384601	50.164141
-1.455000	-1.089067	-4.156866	93.821839	-0.009495	-0.265539	-0.002937	89.144797	0.485442	-2.075162	24.332034	3.482277	-17.894518	-28.957685	19.869245	6.011576	30.867111	20.452026	9.711667	4.497455	33.764851	21.582709	-1.209720	-3.918685	50.475147	32.939174	-20.653766	-8.047745	60.392825	50.157354
-1.445000	-1.089067	-4.156866	93.821839	-0.009506	-0.265506	-0.002929	89.125889	0.479074	-2.056679	24.286993	3.500567	-17.883904	-28.881972	19.908374	5.997022	30.803467	20.416137	9.697725	4.492864	33.761884	21.578002	-1.230317	-3.917231	50.472805	32.943890	-20.660259	-8.037123	60.416142	50.166096
-1.435000	-1.089067	-4.156866	93.821839	-0.009509	-0.265470	-0.002925	89.107057	0.475589	-2.035055	24.263742	3.511539	-17.886100	-28.838743	19.936613	5.983003	30.756014	20.383337	9.680845	4.481208	33.762154	21.572273	-1.258913	-3.911700	50.490881	32.951107	-20.673013	-8.032433	60.453466	50.177318
-1.425000	-1.089067	-4.156866	93.821839	-0.009507	-0.265435	-0.002925	89.095185	0.476051	-2.015293	24.270782	3.510700	-17.902374	-28.840920	19.952588	5.970166	30.727785	20.357772	9.665992	4.464349	33.763002	21.565550	-1.284819	-3.901398	50.518476	32.957947	-20.685066	-8.032563	60.495231	50.178827
-1.415000	-1.089067	-4.156866	93.821839	-0.009502	-0.265408	-0.002925	89.095055	0.481304	-2.002489	24.304976	3.498092	-17.927902	-28.883802	19.957285	5.959118	30.719970	20.343218	9.657570	4.445540	33.763679	21.559053	-1.296973	-3.886456	50.544262	32.962741	-20.685942	-8.036084	60.528773	50.164470
-1.405000	-1.089067	-4.156866	93.821839	-0.009493	-0.265393	-0.002927	89.107701	0.491512	-1.999190	24.354055	3.476723	-17.954378	-28.948368	19.952300	5.950524	30.732577	20.341636	9.656418	4.428261	33.766215	21.555160	-1.290221	-3.868154	50.562308	32.965932	-20.668770	-8.042245	60.544890	50.135972
-1.395000	-1.089067	-4.156866	93.821839	-0.009482	-0.265388	-0.002935	89.130030	0.505723	-2.004070	24.403310	3.450216	-17.974453	-29.011149	19.939160	5.944925	30.763804	20.351361	9.659613	4.415257	33.773522	21.555517	-1.267988	-3.848677	50.573433	32.969386	-20.635489	-8.050959	60.541257	50.101432
-1.385000	-1.089067	-4.156866	93.821839	-0.009468	-0.265391	-0.002949	89.155766	0.521700	-2.012843	24.442726	3.421390	-17.985462	-29.055591	19.920025	5.942352	30.808704	20.366312	9.663063	4.408087	33.786112	21.558762	-1.239967	-3.830476	50.581938	32.974803	-20.596877	-8.061893	60.521025	50.071563
-1.375000	-1.089067	-4.156866	93.821839	-0.009454	-0.265398	-0.002967	89.177314	0.536184	-2.020801	24.470644	3.392448	-17.990223	-29.079223	19.898713	5.941977	30.858660	20.377604	9.664645	4.407076	33.800096	21.560161	-1.216903	-3.815641	50.590788	32.982416	-20.567786	-8.073572	60.488541	50.055259
